<?xml version="1.0" encoding="UTF-8" standalone="no" ?>
<!DOCTYPE svg PUBLIC "-//W3C//DTD SVG 1.1//EN" "http://www.w3.org/Graphics/SVG/1.1/DTD/svg11.dtd">
<svg xmlns="http://www.w3.org/2000/svg" xmlns:xlink="http://www.w3.org/1999/xlink" version="1.1" width="200" height="200" viewBox="0 0 400 400" xml:space="preserve">
<desc>Created with Fabric.js 3.6.2</desc>
<defs>
</defs>
<g transform="matrix(5.42 0 0 5.42 200 200)" id="github"  >
<path style="stroke: none; stroke-width: 1; stroke-dasharray: none; stroke-linecap: butt; stroke-dashoffset: 0; stroke-linejoin: miter; stroke-miterlimit: 4; fill: rgb(255,255,255); fill-rule: evenodd; opacity: 1;"  transform=" translate(-19, -19)" d="M 14.4252739 36.5168887 C 14.4252739 36.0671729 14.4094072 34.8772272 14.4003405 33.2968305 C 9.2651779 34.440294 8.18170506 30.7588994 8.18170506 30.7588994 C 7.34190028 28.5719093 6.13149339 27.9897191 6.13149339 27.9897191 C 4.45528384 26.8148801 6.25842744 26.8392833 6.25842744 26.8392833 C 8.111438 26.9729198 9.08611021 28.7903759 9.08611021 28.7903759 C 10.7328529 31.6827342 13.4064015 30.8483777 14.4592741 30.3638002 C 14.6270084 29.1401549 15.1041445 28.3057984 15.6311475 27.8328415 C 11.5318575 27.3552363 7.22176626 25.7306815 7.22176626 18.4771257 C 7.22176626 16.4109894 7.94143703 14.7213595 9.12237709 13.3977773 C 8.93310934 12.9190101 8.29843906 10.9946447 9.30371145 8.38815229 C 9.30371145 8.38815229 10.8541203 7.8791716 14.3799404 10.3287864 C 15.8521487 9.90928408 17.4320244 9.69778982 19.0028333 9.69081748 C 20.5702423 9.69778982 22.1489846 9.90928408 23.624593 10.3287864 C 27.1481464 7.8791716 28.6962885 8.38815229 28.6962885 8.38815229 C 29.7038276 10.9934827 29.0702907 12.917848 28.8798896 13.3977773 C 30.0630963 14.7213595 30.7771004 16.4109894 30.7771004 18.4771257 C 30.7771004 25.7492744 26.4602091 27.349426 22.3473191 27.8177347 C 23.0114562 28.4022491 23.6007929 29.5573331 23.6007929 31.3236588 C 23.6007929 33.8546176 23.5769927 35.8963506 23.5769927 36.5168887 C 23.5769927 37.0235453 23.9101946 37.6115458 24.8474666 37.4267788 C 32.176775 34.9190612 37.4615385 27.8281932 37.4615385 19.4683597 C 37.4615385 9.01333862 29.1949581 0.538461538 18.9994333 0.538461538 C 8.80504195 0.538461538 0.538461538 9.01333862 0.538461538 19.4683597 C 0.539594878 27.8305174 5.82889166 34.9260335 13.1650001 37.4291029 C 14.0875387 37.6022493 14.4252739 37.017735 14.4252739 36.5168887 Z" stroke-linecap="round" />
</g>
</svg>