<?xml version="1.0" encoding="UTF-8" standalone="no" ?>
<!DOCTYPE svg PUBLIC "-//W3C//DTD SVG 1.1//EN" "http://www.w3.org/Graphics/SVG/1.1/DTD/svg11.dtd">
<svg xmlns="http://www.w3.org/2000/svg" xmlns:xlink="http://www.w3.org/1999/xlink" version="1.1" width="200" height="200" viewBox="0 0 400 400" xml:space="preserve">
<desc>Created with Fabric.js 3.6.2</desc>
<defs>
</defs>
<g transform="matrix(0.39 0 0 0.39 200 200)" id="Layer_1"  >
<path style="stroke: none; stroke-width: 1; stroke-dasharray: none; stroke-linecap: butt; stroke-dashoffset: 0; stroke-linejoin: miter; stroke-miterlimit: 4; fill: rgb(255,255,255); fill-rule: nonzero; opacity: 1;"  transform=" translate(-256, -256)" d="M 256 0 C 114.615 0 0 114.615 0 256 S 114.615 512 256 512 S 512 397.385 512 256 S 397.385 0 256 0 Z M 392.363 342.9 H 359.878 a 23.41 23.41 0 0 1 -18.318 -8.8 c -9.742 -12.231 -28.934 -33.918 -49.085 -43.233 a 7.666 7.666 0 0 0 -10.916 6.928 v 32.128 A 12.974 12.974 0 0 1 268.585 342.9 H 253.564 c -19.534 0 -61.6 -11.891 -95.119 -60.719 c -28.56 -41.6 -41.291 -73.84 -48.715 -99.98 a 10.3 10.3 0 0 1 9.922 -13.093 h 32.862 a 15.226 15.226 0 0 1 14.6 10.861 c 6.111 20.439 21.939 64.53 49.917 86.486 a 5.788 5.788 0 0 0 9.371 -4.54 V 210.449 c 0 -10.171 -4.408 -20.347 -11.288 -28.3 a 7.878 7.878 0 0 1 5.946 -13.046 h 50.666 a 9.838 9.838 0 0 1 9.838 9.837 v 69.325 a 5.468 5.468 0 0 0 8.636 4.456 c 9.3 -6.62 17.265 -16.4 24.591 -27.393 c 9.22 -13.828 20.471 -36.686 26.115 -48.549 A 13.457 13.457 0 0 1 353.06 169.1 H 388.9 a 8.788 8.788 0 0 1 7.873 12.7 c -9.044 18.14 -26.659 51.418 -43.235 70.942 a 13.877 13.877 0 0 0 1.623 19.54 c 10.805 9.232 27.673 26.3 45.859 54.729 A 10.305 10.305 0 0 1 392.363 342.9 Z" stroke-linecap="round" />
</g>
</svg>